<svg width="18" height="18" viewBox="0 0 18 18" fill="none" xmlns="http://www.w3.org/2000/svg">
<path d="M1.2002 2.8718C1.2002 1.9502 1.9106 1.2002 2.7518 1.2002H15.2486C16.1066 1.2002 16.8002 1.9418 16.8002 2.8718C16.8002 3.7946 16.0898 4.5428 15.2486 4.5428H2.7518C1.8938 4.5422 1.2002 3.8024 1.2002 2.8724V2.8718ZM1.2002 9.0002C1.2002 8.0774 1.9106 7.3286 2.7518 7.3286H15.2486C16.1066 7.3286 16.8002 8.0726 16.8002 9.0008C16.8002 9.9236 16.0898 10.6724 15.2486 10.6724H2.7518C1.8938 10.67 1.2002 9.929 1.2002 9.0002ZM2.7518 13.4582H15.2486C16.1066 13.4582 16.8002 14.1986 16.8002 15.1286C16.8002 16.0502 16.0898 16.8002 15.2486 16.8002H2.7518C1.8938 16.8002 1.2002 16.0586 1.2002 15.1286C1.2002 14.2058 1.9106 13.4576 2.7518 13.4576V13.4582Z" fill="white"/>
</svg>
