<svg width="30" height="30" viewBox="0 0 30 30" xmlns="http://www.w3.org/2000/svg"><title>toggle</title><path d="M2 4.786C2 3.25 3.184 2 4.586 2h20.828C26.844 2 28 3.236 28 4.786c0 1.538-1.184 2.785-2.586 2.785H4.586C3.156 7.57 2 6.337 2 4.787zM2 15c0-1.538 1.184-2.786 2.586-2.786h20.828c1.43 0 2.586 1.24 2.586 2.787 0 1.538-1.184 2.786-2.586 2.786H4.586C3.156 17.783 2 16.548 2 15zm2.586 7.43h20.828c1.43 0 2.586 1.234 2.586 2.784C28 26.75 26.816 28 25.414 28H4.586C3.156 28 2 26.764 2 25.214c0-1.538 1.184-2.785 2.586-2.785z" fill="#969EA2" fill-rule="nonzero"/></svg>