<svg width="30" height="30" viewBox="0 0 30 30" xmlns="http://www.w3.org/2000/svg"><title>toggle-close</title><g fill="#969EA2" fill-rule="evenodd"><path d="M2.836 27.154c-1.088-1.087-1.11-2.834-.086-3.857L23.305 2.76c1.042-1.043 2.762-1.01 3.86.086 1.087 1.087 1.11 2.834.085 3.857L6.695 27.24c-1.044 1.043-2.762 1.01-3.86-.086z"/><path d="M23.052 23.06c-1.08 1.082-2.673 1.25-3.52.402l-16.984-17c-.863-.863-.69-2.433.4-3.524 1.08-1.08 2.673-1.246 3.52-.398l16.985 16.995c.86.862.69 2.433-.4 3.523v.003z"/><path d="M27.05 27.06c-1.08 1.082-2.672 1.25-3.52.4l-16.984-17c-.86-.86-.688-2.43.404-3.52 1.08-1.082 2.672-1.25 3.517-.402L27.453 23.54c.86.86.69 2.43-.4 3.52h-.002z"/></g></svg>