<svg width="18" height="18" viewBox="0 0 18 18" fill="none" xmlns="http://www.w3.org/2000/svg">
<path fill-rule="evenodd" clip-rule="evenodd" d="M1.70199 16.2924C1.04919 15.6402 1.03599 14.592 1.65039 13.9782L13.9834 1.65604C14.6086 1.03024 15.6406 1.05004 16.2994 1.70764C16.9516 2.35984 16.9654 3.40804 16.3504 4.02184L4.01739 16.344C3.39099 16.9698 2.36019 16.95 1.70139 16.2924H1.70199Z" fill="white"/>
<path fill-rule="evenodd" clip-rule="evenodd" d="M13.8315 13.8363C13.1835 14.4855 12.2277 14.5863 11.7195 14.0775L1.52905 3.87754C1.01125 3.35974 1.11505 2.41774 1.76905 1.76314C2.41705 1.11514 3.37285 1.01554 3.88105 1.52434L14.0721 11.7213C14.5881 12.2385 14.4861 13.1811 13.8321 13.8351V13.8369L13.8315 13.8363Z" fill="white"/>
<path fill-rule="evenodd" clip-rule="evenodd" d="M16.23 16.2359C15.582 16.8851 14.6268 16.9859 14.118 16.4759L3.92763 6.2759C3.41163 5.7599 3.51483 4.8179 4.17003 4.1639C4.81803 3.5147 5.77323 3.4139 6.28024 3.9227L16.4718 14.1239C16.9878 14.6399 16.8858 15.5819 16.2318 16.2359H16.2306H16.23Z" fill="white"/>
</svg>
