<svg width="322" height="220" viewBox="0 0 322 220" fill="none" xmlns="http://www.w3.org/2000/svg"><path fill-rule="evenodd" clip-rule="evenodd" d="M1 2.948C1 1.32 2.305 0 3.915 0h314.17C319.695 0 321 1.32 321 2.948V21H1V2.948z" fill="#DADFE2"/><path d="M12.5 14a3.5 3.5 0 1 0 0-7 3.5 3.5 0 0 0 0 7zM24.5 14a3.5 3.5 0 1 0 0-7 3.5 3.5 0 0 0 0 7zM36.5 14a3.5 3.5 0 1 0 0-7 3.5 3.5 0 0 0 0 7z" fill="#969EA2"/><path fill-rule="evenodd" clip-rule="evenodd" d="M1 20h79v199H3.917C2.307 219 1 217.824 1 216.373V20z" fill="#F1F4F5"/><path fill-rule="evenodd" clip-rule="evenodd" d="M79 20h242V216.373c0 1.45-1.307 2.627-2.92 2.627H79V20z" fill="#fff"/><path fill-rule="evenodd" clip-rule="evenodd" d="M1 46h78v14H1V46z" fill="#499DF3"/><path d="M317.5 1H4.5A3.5 3.5 0 0 0 1 4.5v211a3.5 3.5 0 0 0 3.5 3.5h313a3.5 3.5 0 0 0 3.5-3.5V4.5a3.5 3.5 0 0 0-3.5-3.5z" stroke="#DADFE2"/><path fill-rule="evenodd" clip-rule="evenodd" d="M221.364 147.288a.954.954 0 0 1 1.358-.01.967.967 0 0 1-.008 1.366l-4.06 4.076a.957.957 0 0 1-1.357-.007l-2.01-2.02a.96.96 0 0 1 .673-1.645c.255 0 .5.105.678.287l1.345 1.35 3.38-3.397z" fill="#fff"/><path d="M300 90h-86a2 2 0 0 0-2 2v10a2 2 0 0 0 2 2h86a2 2 0 0 0 2-2V92a2 2 0 0 0-2-2zM300 114h-86a2 2 0 0 0-2 2v10a2 2 0 0 0 2 2h86a2 2 0 0 0 2-2v-10a2 2 0 0 0-2-2zM181 170H95a2 2 0 0 0-2 2v10a2 2 0 0 0 2 2h86a2 2 0 0 0 2-2v-10a2 2 0 0 0-2-2z" fill="#F1F4F5"/><path d="M181 198h-38a2 2 0 0 0-2 2v10a2 2 0 0 0 2 2h38a2 2 0 0 0 2-2v-10a2 2 0 0 0-2-2z" fill="#499DF3"/><path d="M181 38H95a2 2 0 0 0-2 2v10a2 2 0 0 0 2 2h86a2 2 0 0 0 2-2V40a2 2 0 0 0-2-2z" fill="#F1F4F5"/><path d="M218.347 120.635h18.04M99 44.365h61.755H99zm119.347 52.003H269h-50.653z" stroke="#DADFE2" stroke-width="3" stroke-linejoin="round"/><path d="M181 65H95a2 2 0 0 0-2 2v10a2 2 0 0 0 2 2h86a2 2 0 0 0 2-2V67a2 2 0 0 0-2-2z" fill="#F1F4F5"/><path d="M99 72.5h34" stroke="#DADFE2" stroke-width="3" stroke-linejoin="round"/><path d="M181 107H95a2 2 0 0 0-2 2v48a2 2 0 0 0 2 2h86a2 2 0 0 0 2-2v-48a2 2 0 0 0-2-2z" fill="#F1F4F5"/><path d="M99 124.65h35.5m-35.5-7.3h71-71z" stroke="#DADFE2" stroke-width="3" stroke-linejoin="round"/><path d="M268.406 38h-22.812A3.594 3.594 0 0 0 242 41.594v22.812A3.594 3.594 0 0 0 245.594 68h22.812A3.594 3.594 0 0 0 272 64.406V41.594A3.594 3.594 0 0 0 268.406 38z" fill="#FF4A00"/><path d="M227 148a7 7 0 1 0-14 0 7 7 0 0 0 14 0z" fill="#13D0AB"/><path fill-rule="evenodd" clip-rule="evenodd" d="M222.362 145.287a.957.957 0 0 1 1.36-.007.964.964 0 0 1-.01 1.365l-4.06 4.075a.957.957 0 0 1-1.36-.007l-2.012-2.02a.964.964 0 0 1 0-1.358.952.952 0 0 1 1.35 0l1.347 1.35 3.385-3.4v.002z" fill="#fff"/><path d="M118 90h28.5M118 90h57-57zM118 97h14.5M118 97h29-29z" stroke="#F93524" stroke-width="3" stroke-linejoin="round"/><path d="M237 144h28.5m-28.5 0h57-57zM237 151h14.5m-14.5 0h29-29z" stroke="#13D0AB" stroke-width="3" stroke-linejoin="round"/><path d="M96.05 97.95a6.997 6.997 0 0 0 9.9 0 6.997 6.997 0 0 0 0-9.9 6.997 6.997 0 0 0-9.9 0 6.997 6.997 0 0 0 0 9.9zm3.774-7.548L101 91.578l1.176-1.175c.383-.384 1.012-.384 1.42 0a1.022 1.022 0 0 1 0 1.42L102.423 93l1.176 1.175c.383.383.383 1.012 0 1.422a1.023 1.023 0 0 1-1.422 0L101 94.42l-1.176 1.177c-.383.383-1.012.383-1.42 0a1.024 1.024 0 0 1 0-1.423L99.577 93l-1.175-1.176c-.383-.384-.383-1.012 0-1.423a1.023 1.023 0 0 1 1.42 0v.002z" fill="#F93524"/><path fill-rule="evenodd" clip-rule="evenodd" d="M266.86 51.333h-5.836l4.127-4.127a10.055 10.055 0 0 0-2.357-2.357l-4.126 4.127V43.14c-.54-.092-1.095-.14-1.66-.14h-.013c-.565 0-1.12.048-1.66.14v5.836l-4.128-4.127c-.455.323-.883.684-1.277 1.08h-.002c-.394.394-.755.82-1.08 1.276l4.13 4.127h-5.84S247 52.43 247 52.996v.008c0 .566.048 1.122.14 1.663h5.836l-4.127 4.127a10.05 10.05 0 0 0 2.356 2.357l4.127-4.126v5.837c.54.092 1.094.14 1.66.14h.014c.566 0 1.12-.048 1.66-.14v-5.836l4.127 4.127c.455-.323.882-.684 1.277-1.08h.002c.394-.394.755-.82 1.08-1.276l-4.128-4.127h5.837c.09-.54.14-1.095.14-1.66v-.014c0-.566-.05-1.12-.14-1.66zm-7.36 1.67c0 .745-.136 1.456-.384 2.113a5.985 5.985 0 0 1-2.112.384h-.008a5.984 5.984 0 0 1-2.11-.384 5.988 5.988 0 0 1-.386-2.112v-.008c0-.744.137-1.455.384-2.11a5.987 5.987 0 0 1 2.112-.386h.008c.744 0 1.455.137 2.112.385.248.656.383 1.367.384 2.11v.01z" fill="#fff"/><mask id="a" maskUnits="userSpaceOnUse" x="247" y="43" width="20" height="20"><path fill-rule="evenodd" clip-rule="evenodd" d="M266.86 51.333h-5.836l4.127-4.127a10.055 10.055 0 0 0-2.357-2.357l-4.126 4.127V43.14c-.54-.092-1.095-.14-1.66-.14h-.013c-.565 0-1.12.048-1.66.14v5.836l-4.128-4.127c-.455.323-.883.684-1.277 1.08h-.002c-.394.394-.755.82-1.08 1.276l4.13 4.127h-5.84S247 52.43 247 52.996v.008c0 .566.048 1.122.14 1.663h5.836l-4.127 4.127a10.05 10.05 0 0 0 2.356 2.357l4.127-4.126v5.837c.54.092 1.094.14 1.66.14h.014c.566 0 1.12-.048 1.66-.14v-5.836l4.127 4.127c.455-.323.882-.684 1.277-1.08h.002c.394-.394.755-.82 1.08-1.276l-4.128-4.127h5.837c.09-.54.14-1.095.14-1.66v-.014c0-.566-.05-1.12-.14-1.66zm-7.36 1.67c0 .745-.136 1.456-.384 2.113a5.985 5.985 0 0 1-2.112.384h-.008a5.984 5.984 0 0 1-2.11-.384 5.988 5.988 0 0 1-.386-2.112v-.008c0-.744.137-1.455.384-2.11a5.987 5.987 0 0 1 2.112-.386h.008c.744 0 1.455.137 2.112.385.248.656.383 1.367.384 2.11v.01z" fill="#fff"/></mask><path fill="#fff" d="M247 43h20v20h-20z" mask="url(#a)"/></svg>