<svg width="30" height="30" viewBox="0 0 30 30" xmlns="http://www.w3.org/2000/svg" xmlns:xlink="http://www.w3.org/1999/xlink"><title>zapier-logomark</title><defs><path id="a" d="M0 30h30V0H0z"/></defs><g fill="none" fill-rule="evenodd"><mask id="b" fill="#fff"><use xlink:href="#a"/></mask><path d="M18.75 15.007a8.97 8.97 0 0 1-.576 3.166 8.976 8.976 0 0 1-3.168.577h-.012a8.975 8.975 0 0 1-3.167-.576 8.974 8.974 0 0 1-.577-3.167v-.013c0-1.115.205-2.182.576-3.167a8.973 8.973 0 0 1 3.168-.577h.012a8.97 8.97 0 0 1 3.168.577 8.97 8.97 0 0 1 .576 3.167v.013zM29.79 12.5h-8.754l6.19-6.19a15.078 15.078 0 0 0-3.535-3.536l-6.19 6.19V.21A15.093 15.093 0 0 0 15.01 0h-.016c-.85 0-1.68.073-2.492.21v8.755L6.31 2.773a15.07 15.07 0 0 0-1.916 1.62l-.003.002c-.59.59-1.13 1.23-1.616 1.914l6.192 6.19H.21c-.002 0-.21 1.644-.21 2.494v.01c0 .85.072 1.684.21 2.495h8.754l-6.19 6.19a15.085 15.085 0 0 0 3.535 3.536l6.19-6.19v8.754a15.1 15.1 0 0 0 2.49.21h.02c.85 0 1.68-.073 2.49-.21v-8.755l6.19 6.192a15.09 15.09 0 0 0 3.534-3.535l-6.19-6.192h8.756a15.1 15.1 0 0 0 .21-2.49v-.02c0-.85-.073-1.68-.21-2.49z" fill="#FF4A00" mask="url(#b)"/></g></svg>